<svg xmlns="http://www.w3.org/2000/svg" width="93" height="31" fill="none" viewBox="0 0 93 31"><path fill="url(#a)" fill-rule="evenodd" d="M22.5 6.26V1L12.036 6.26 12 1 1 6.26V27.5h32V1zM12.036 16.776v-5.26l-5.412 2.635V8.888l5.412-2.629v5.254l5.086-2.62v5.26zm0 0L12 22.036 6.624 24.67v-5.264zm32.78 1.015h1.993l3.523 9.705h-2.536l-.562-1.947h-2.776l-.547 1.947h-2.536zm.152 5.947h1.74l-.882-3.051zm12.622 1.64.054-.108-2.167-.923c-.53 1.313-2.706.99-2.706-.147v-3.055c0-1.178 2.148-1.446 2.801-.268l2.03-.76c0-.04-.067-.197-.078-.22-.782-1.63-2.187-2.11-3.353-2.11-1.93 0-3.834 1.097-3.834 3.239v3.225c0 2.156 1.903 3.24 3.794 3.24a3.88 3.88 0 0 0 3.46-2.113m24.948 2.12h-3.105l-2.437-3.084h-.446v3.084h-2.52v-9.705h3.94c2.034 0 3.607.92 3.663 3.194 0 1.796-.738 2.81-1.935 3.18zm-4.526-5.195c1.574 0 1.574-2.22 0-2.22H76.55v2.22zm9.414 5.197v-3.824l3.453-5.88h-2.925l-1.782 3.701-1.782-3.701h-2.897l3.439 5.88V27.5zM47.206 5.908c1.894 0 3.788 1.066 3.788 3.2v3.318c0 2.133-1.881 3.2-3.775 3.2s-3.787-1.067-3.787-3.2V9.108c0-2.147 1.881-3.2 3.775-3.2m-1.537 6.518c-.013 1.356 3.097 1.356 3.097 0V9.168c-.012-1.423-3.096-1.383-3.096 0zm27.34 8.556c0-2.133-1.907-3.2-3.813-3.2s-3.8 1.054-3.8 3.2v3.317c0 2.133 1.906 3.2 3.813 3.2 1.906 0 3.8-1.067 3.8-3.2zm-2.261 3.317c0 1.356-3.137 1.356-3.123 0v-3.317c0-1.383 3.11-1.422 3.123 0zm-9.965-8.673h-3.062l-2.402-3.088h-.44v3.088h-2.486V5.908h3.886c2.006 0 3.557.92 3.612 3.198 0 1.798-.728 2.814-1.909 3.185zm-4.463-5.202c1.552 0 1.552-2.224 0-2.224h-1.442v2.224zM72.805 9.09l-1.687-3.183h-2.915l2.776 4.873-2.776 4.845h2.915l1.687-3.17 1.73 3.17h2.9l-2.762-4.845 2.761-4.873h-2.9zm-31.016.586h-3.268V8.238H42.3l.826-2.33H36v9.706h2.521v-3.758h2.496zM38.521 21.56h3.267l-.773 2.178h-2.494v3.758H36v-9.704h7.123l-.826 2.33h-3.776zm19.098-3.778.826 2.334h1.8v7.37h2.517v-7.37h1.809l.826-2.334zm6.125-5.927v1.559h4.54l-1.326 2.21h-5.734V5.909h5.734l1.32 2.242h-4.534v1.527h3.46v2.18z" clip-rule="evenodd"/><defs><linearGradient id="a" x1="46.125" x2="46.125" y1="1" y2="27.012" gradientUnits="userSpaceOnUse"><stop stop-color="#DADEE6"/><stop offset="1" stop-color="#fff"/></linearGradient></defs></svg>