<svg xmlns="http://www.w3.org/2000/svg" width="24" height="24" fill="none" viewBox="0 0 24 24"><g fill="#DDE4EC" clip-path="url(#a)"><rect width="24" height="24" opacity=".25" rx="3"/><path d="M10.789 13H8.491c-.362 0-.49-.127-.49-.48v-2.037c0-.35.136-.483.493-.483h2.295V7.488c0-.894.164-1.75.631-2.533.478-.802 1.174-1.352 2.065-1.67A5.2 5.2 0 0 1 15.254 3l2.274.002c.326 0 .47.14.47.46.002.855.002 1.2 0 2.055 0 .323-.138.453-.471.456-.622.007-1.243.003-1.864.027C14.5 6 14 6.809 14 7.44c-.015.668-.006 1.867-.006 2.56H18a94 94 0 0 1-1.003 3h-3.01v7.485c0 .39-.127.515-.523.515h-2.189c-.35 0-.486-.132-.486-.473z"/></g><defs><clipPath id="a"><path fill="#fff" d="M0 0h24v24H0z"/></clipPath></defs></svg>